<svg width="147" height="97" viewBox="0 0 147 97" fill="none" xmlns="http://www.w3.org/2000/svg">
<g clip-path="url(#clip0_102_50)">
<path d="M80.9582 0.275102C66.1932 -1.3249 51.7825 4.31677 39.7159 12.3584C27.8264 20.2918 17.4968 30.5334 9.50301 42.3168C5.44708 48.3001 1.87179 54.8668 0.539488 62.0168C-0.700057 68.6334 0.0672803 75.7501 3.72689 81.5251C7.3865 87.3001 13.1373 90.6751 19.1833 92.9501C26.3001 95.6334 33.9398 96.8251 41.5372 96.9834C56.5383 97.2918 71.6827 93.9834 85.773 89.0834C99.8634 84.1834 112.546 77.5084 124.3 69.0001C135.11 61.1834 145.912 50.7668 146.907 36.7751C147.362 30.3668 145.625 23.9084 141.173 19.1001C136.721 14.2918 130.683 11.7501 124.595 10.0251C109.552 5.76677 93.3283 5.9751 77.99 8.3501C62.6517 10.7251 46.4954 15.8001 31.2836 21.2168C27.5987 22.5251 23.9306 23.8751 20.2626 25.2168C19.7988 25.3834 18.964 25.9501 19.3941 26.5084C19.8241 27.0668 21.0384 26.7251 21.5443 26.5418C35.9551 21.2918 50.4249 16.0501 65.3922 12.5584C80.3595 9.06677 95.4448 7.44177 110.496 9.41677C122.639 11.0084 138.07 14.7751 142.438 27.7251C144.436 33.6501 143.855 40.1918 141.62 45.9668C139.259 52.0751 134.933 57.2918 130.118 61.6918C125.304 66.0918 119.536 70.1668 113.802 73.7418C108.068 77.3168 101.828 80.6334 95.4954 83.4168C82.7458 89.0251 69.094 92.9334 55.2144 94.5168C47.8446 95.3584 40.3399 95.4584 33.0038 94.2834C26.3423 93.2168 19.588 91.2001 13.9384 87.4418C8.44897 83.8001 4.7472 78.4168 3.60884 71.9584C2.47048 65.5001 3.92927 58.4668 6.70349 52.3334C9.53673 46.0584 13.6095 40.2668 17.9437 34.9168C22.2779 29.5668 27.059 24.7251 32.2955 20.3168C42.684 11.5584 55.1891 3.90844 68.9422 2.08344C72.2982 1.63344 75.7133 1.55844 79.0778 1.9251C79.8114 2.0001 80.6968 1.88344 81.2533 1.3501C81.6665 0.950103 81.6581 0.350102 80.9582 0.275102Z" fill="white"/>
</g>
<defs>
<clipPath id="clip0_102_50">
<rect width="147" height="97" fill="white"/>
</clipPath>
</defs>
</svg>
