<svg width="48" height="19" viewBox="0 0 48 19" fill="none" xmlns="http://www.w3.org/2000/svg">
<g clip-path="url(#clip0_6_4833)">
<path d="M3.78001 7.33C5.48001 4.69 8.23001 1.41 11.74 2.51C14.93 3.51 17.19 6.59 19.44 8.88C25.15 14.67 33.82 17.12 41.51 13.8C44.54 12.49 48.8 9.46 47.56 5.56C46.32 1.66 41.24 2.57 38.43 3.83C34.53 5.58 31.15 8.54 27.55 10.81C23.95 13.08 20.06 15.2 15.8 15.9C12.17 16.5 6.74001 16.26 4.90001 12.37C3.97001 10.4 4.41001 8.06 5.63001 6.31C6.85001 4.56 8.92001 3.57 10.98 2.98C11.56 2.82 12.92 2.28 12.7 1.45C12.48 0.620001 10.99 0.860001 10.45 0.990001C6.57001 1.94 2.53001 4.04 0.860012 7.87C-0.809988 11.7 0.840012 15.24 4.31001 17.04C7.96001 18.93 12.48 18.77 16.39 17.99C20.89 17.09 25.07 15.13 28.97 12.76C30.92 11.57 32.8 10.29 34.69 9C36.38 7.84 38.06 6.49 39.9 5.6C41.33 4.9 42.85 4.85 43.43 6.66C44.01 8.47 42.84 10.23 41.38 11.25C38.11 13.51 33.64 13.27 30.07 11.9C26.31 10.46 23.76 7.77 21.01 4.97C18.26 2.17 14.98 -0.299999 10.74 0.0300011C6.19001 0.390001 2.51001 3.54 0.140012 7.24C-0.349988 8.02 0.570012 8.36 1.20001 8.39C2.03001 8.43 3.29001 8.08 3.78001 7.32V7.33Z" fill="black"/>
</g>
<defs>
<clipPath id="clip0_6_4833">
<rect width="47.78" height="18.54" fill="white"/>
</clipPath>
</defs>
</svg>
