<svg width="62" height="73" viewBox="0 0 62 73" fill="none" xmlns="http://www.w3.org/2000/svg">
<g clip-path="url(#clip0_102_68)">
<path d="M16.0566 27.2172C27.8096 20.5605 39.5625 13.9037 51.3155 7.24699C54.6479 5.3568 57.9952 3.48156 61.3051 1.54655C61.7609 1.28506 62.1345 0.739671 61.5666 0.388529C60.9988 0.0373883 59.9976 0.373587 59.4671 0.66496C47.6245 7.17228 35.9238 13.956 24.1709 20.6128L14.1439 26.2908C13.6657 26.5598 13.2846 27.1425 13.8749 27.5011C14.4652 27.8597 15.5187 27.5235 16.0716 27.2097L16.0566 27.2172Z" fill="white"/>
<path d="M59.1085 1.21775C58.9067 16.8398 58.5556 32.4618 58.0475 48.0764C57.9055 52.5366 57.7411 56.9969 57.5768 61.4571C57.5319 62.6376 60.4235 62.0548 60.4608 61.0985C61.0586 45.4839 61.4994 29.8694 61.7908 14.2473C61.873 9.78708 61.9402 5.31937 62 0.859133C62.0149 -0.32877 59.1234 0.268917 59.1159 1.21775H59.1085Z" fill="white"/>
<path d="M13.7329 27.1723C26.0014 35.4727 37.1492 45.2598 48.4464 54.8004C51.6144 57.4751 54.8048 60.1348 58.0325 62.7422C58.5481 63.1606 59.3774 63.0186 59.9453 62.7721C60.2292 62.6525 61.2304 62.0324 60.7149 61.614C49.1039 52.2304 38.0458 42.1593 26.1808 33.0894C22.8633 30.5567 19.4861 28.1062 16.0268 25.7678C15.2497 25.2448 12.5823 26.3879 13.7329 27.1649V27.1723Z" fill="white"/>
<path d="M58.9142 0.791951C50.4637 10.1607 42.1627 19.6639 34.0111 29.2867C31.6874 32.0286 29.3786 34.7854 27.0774 37.5497C26.6291 38.0876 27.4584 38.379 27.8619 38.4014C28.5493 38.4388 29.3263 38.1474 29.7672 37.6169C37.8366 27.9195 46.048 18.3415 54.4162 8.89808C56.7997 6.20849 59.1981 3.52637 61.604 0.851719C62.0822 0.321272 61.2005 0.0224287 60.8195 1.54623e-05C60.1097 -0.03734 59.3849 0.268975 58.9142 0.78448V0.791951Z" fill="white"/>
<path d="M55.5743 2.6971C50.6281 13.8514 45.906 25.1178 41.4379 36.4739C40.1677 39.6939 38.92 42.9214 37.6871 46.1564C37.4481 46.7765 38.6136 46.8064 38.9349 46.7765C39.5401 46.7093 40.3396 46.4179 40.5787 45.7978C44.9197 34.3895 49.4924 23.0708 54.3116 11.8567C55.679 8.67397 57.0612 5.50623 58.4659 2.33849C58.7349 1.72586 57.5095 1.68851 57.2181 1.71839C56.583 1.7931 55.8508 2.08448 55.5743 2.6971Z" fill="white"/>
<path d="M37.3584 45.4765C35.3186 48.5023 33.1294 51.4085 30.9925 54.3671C30.6115 54.89 31.3138 55.159 31.7322 55.1739C32.3823 55.1964 33.1219 54.9423 33.5404 54.4268C35.8342 51.5878 37.9188 48.562 39.9585 45.5362C40.3246 44.9909 39.6447 44.7294 39.2039 44.7144C38.5912 44.6995 37.7245 44.9311 37.3584 45.4765Z" fill="white"/>
<path d="M28.0113 38.648C28.6913 44.722 29.1993 50.8483 30.1109 56.8998C30.2528 57.8412 32.9277 57.1688 32.853 56.1677C32.3897 50.0638 31.523 43.9748 30.8356 37.8934C30.731 36.9595 27.8918 37.5871 28.0113 38.648Z" fill="white"/>
<path d="M34.7582 55.7044C36.021 54.5464 37.3285 53.4407 38.6809 52.3873C40.0333 51.3338 41.423 50.4448 42.8351 49.4063C43.2535 49.0925 43.1714 48.6144 42.7006 48.4575C42.1029 48.2557 41.3632 48.4575 40.8402 48.7638C39.2936 49.6603 37.8366 50.781 36.4244 51.8717C35.0123 52.9625 33.7272 54.0608 32.4495 55.2337C32.2926 55.3757 32.0983 55.6222 32.1656 55.8538C32.2328 56.0854 32.5167 56.205 32.7259 56.2498C33.376 56.3918 34.2651 56.1602 34.7657 55.7044H34.7582Z" fill="white"/>
<path d="M37.3509 51.3787C38.2401 50.527 39.1367 49.6827 40.0258 48.8236C40.1677 48.6816 40.3471 48.4724 40.2873 48.2483C40.2275 48.0242 39.966 47.9196 39.7717 47.8822C39.443 47.8224 39.0918 47.8449 38.778 47.942C38.4642 48.0391 38.128 48.1586 37.8889 48.3902C36.9848 49.2345 36.0882 50.0862 35.1916 50.9379C35.0422 51.0798 34.8629 51.2965 34.9226 51.5206C34.9824 51.7448 35.2514 51.8568 35.4456 51.8942C35.7744 51.954 36.133 51.9315 36.4543 51.8344C36.7756 51.7373 37.1118 51.6103 37.3509 51.3787Z" fill="white"/>
<path d="M33.9663 52.7758L33.6973 52.9102C33.3984 53.0597 33.8915 52.8131 33.6524 52.9327L35.2514 53.7022C36.7457 52.0735 38.2998 50.5045 39.8838 48.958C40.0258 48.8161 40.2051 48.6069 40.1453 48.3828C40.0856 48.1586 39.824 48.054 39.6298 48.0167C39.0246 47.9046 38.2027 48.0839 37.7394 48.5247C36.133 50.0413 34.5939 51.6327 33.107 53.2689C32.9875 53.4033 32.7633 53.6275 32.8455 53.8441C32.9127 54.0234 33.0622 54.1131 33.2415 54.1729C33.8243 54.3596 34.4967 54.1729 35.0123 53.8815C35.214 53.7694 35.4158 53.6723 35.61 53.5677C35.9761 53.3734 36.3945 52.7832 35.8416 52.5292C35.2364 52.2603 34.5117 52.4993 33.9588 52.7758H33.9663Z" fill="white"/>
<path d="M38.8826 50.3776C39.4654 49.4437 40.0482 48.5098 40.6086 47.561C40.7132 47.3742 40.758 47.18 40.6086 47.0007C40.4591 46.8214 40.1005 46.7616 39.8764 46.7616C39.5177 46.7616 39.1441 46.8214 38.8154 46.9708C38.5464 47.0903 38.255 47.2472 38.0906 47.5012C37.4854 48.4277 36.9101 49.3765 36.3273 50.3178C36.2152 50.5046 36.1779 50.7063 36.3273 50.8856C36.4767 51.0649 36.8429 51.1247 37.067 51.1247C37.4331 51.1247 37.8142 51.0649 38.1429 50.908C38.4119 50.7885 38.7182 50.6316 38.8826 50.3701V50.3776Z" fill="white"/>
<path d="M38.4866 48.6069C38.8901 49.0999 39.2936 49.593 39.712 50.0787C39.7942 50.1608 39.8988 50.2206 40.0183 50.243C40.1528 50.2953 40.2948 50.3177 40.4442 50.3177C40.6235 50.3177 40.7954 50.3028 40.9672 50.2654C41.154 50.2356 41.3333 50.1833 41.5052 50.1085L41.8115 49.9517C41.9759 49.8545 42.1179 49.735 42.2299 49.5781L42.3196 49.3838C42.3495 49.2494 42.3196 49.1298 42.2225 49.0252C41.8339 48.5247 41.4305 48.0316 41.0345 47.546C40.9448 47.4563 40.8477 47.404 40.7281 47.3816C40.5936 47.3293 40.4442 47.3069 40.2948 47.3069C40.1155 47.3069 39.9361 47.3218 39.7643 47.3592C39.5775 47.3891 39.3982 47.4414 39.2189 47.5161L38.9125 47.673C38.7481 47.7701 38.6062 47.8971 38.4866 48.0465L38.3895 48.2482C38.3596 48.3902 38.3895 48.5097 38.4866 48.6143V48.6069Z" fill="white"/>
<path d="M3.73584 37.5422L0.268976 41.0088C0.127014 41.1507 -0.052306 41.3525 0.00746746 41.5766C0.0672409 41.7858 0.32875 41.9053 0.515542 41.9352C0.836824 41.995 1.18052 41.9726 1.49433 41.8754C1.80814 41.7783 2.14437 41.6662 2.36852 41.4346L5.84285 37.9681C5.98481 37.8261 6.16413 37.6244 6.10436 37.4002C6.04458 37.1911 5.78308 37.0715 5.59628 37.0416C5.275 36.9819 4.9313 37.0043 4.61749 37.1014C4.30368 37.1985 3.96746 37.3106 3.74331 37.5422H3.73584Z" fill="white"/>
<path d="M14.7491 43.661L8.42805 49.989C8.28609 50.131 8.10677 50.3327 8.16654 50.5643C8.22631 50.7735 8.48782 50.893 8.68209 50.9304C9.27235 51.0424 10.1166 50.8706 10.5575 50.4298L16.886 44.1018C17.028 43.9598 17.2073 43.7506 17.1475 43.5265C17.0877 43.3099 16.8262 43.1978 16.632 43.1604C16.0417 43.0484 15.1899 43.2202 14.7491 43.6685V43.661Z" fill="white"/>
<path d="M36.9848 59.5819C35.0123 61.756 33.0398 63.9375 31.0747 66.1116C30.9328 66.261 30.746 66.4553 30.8132 66.6869C30.873 66.9036 31.142 67.0156 31.3288 67.053C31.8966 67.1576 32.8007 67.0007 33.2191 66.5449C35.1991 64.3709 37.1716 62.1893 39.1441 60.0152C39.2861 59.8583 39.4729 59.6715 39.4131 59.4325C39.3533 59.2158 39.0844 59.0963 38.8901 59.0589C38.3148 58.9543 37.4032 59.1112 36.9848 59.567V59.5819Z" fill="white"/>
<path d="M55.9479 66.306C53.9754 68.2111 52.0104 70.1162 50.0378 72.0213C49.8959 72.1633 49.7091 72.3725 49.7689 72.5966C49.8286 72.8207 50.0976 72.9328 50.2919 72.9627C50.8971 73.0748 51.7264 72.8955 52.1897 72.4547C54.1697 70.5495 56.1422 68.6444 58.1147 66.7393C58.2642 66.5973 58.4435 66.3807 58.3837 66.1565C58.3239 65.9324 58.0549 65.8203 57.8607 65.783C57.248 65.6709 56.4112 65.8502 55.9479 66.2985V66.306Z" fill="white"/>
</g>
<defs>
<clipPath id="clip0_102_68">
<rect width="62" height="73" fill="white"/>
</clipPath>
</defs>
</svg>
