<svg width="130" height="144" viewBox="0 0 130 144" fill="none" xmlns="http://www.w3.org/2000/svg">
<g clip-path="url(#clip0_102_31)">
<path d="M7.92322 36.1535C5.67778 37.2358 3.43233 38.318 1.17952 39.3857C0.552714 39.6822 0.876932 40.4746 1.1828 40.9179C1.41866 41.2586 1.71719 41.5954 2.08948 41.8033C2.31065 41.931 2.70505 42.1645 2.96315 42.0349C5.21596 40.9672 7.46509 39.8923 9.70685 38.8027C10.33 38.4988 10.0131 37.7211 9.70357 37.2704C9.46772 36.9297 9.16919 36.5929 8.79689 36.385C8.57941 36.2646 8.18132 36.0238 7.92322 36.1535Z" fill="white"/>
<path d="M18.7633 30.8171C16.7059 31.8509 14.6411 32.8699 12.5727 33.8817C12.3219 34.0076 12.2076 34.1294 12.2076 34.4233C12.2038 34.7467 12.3954 35.1464 12.5796 35.4029C12.8155 35.7436 13.114 36.0804 13.4863 36.2883C13.7038 36.4086 14.1019 36.6495 14.36 36.5198C16.4285 35.5081 18.4896 34.4817 20.5507 33.4553C20.8014 33.3293 20.9083 33.2113 20.9158 32.9136C20.9195 32.5902 20.7279 32.1905 20.5437 31.9341C20.3078 31.5933 20.0093 31.2565 19.637 31.0486C19.4195 30.9283 19.0214 30.6874 18.7633 30.8171Z" fill="white"/>
<path d="M30.8645 24.6451C28.3093 25.9749 25.7541 27.2863 23.1842 28.5867C22.963 28.6979 23.0255 29.1716 23.0697 29.3331C23.1618 29.7001 23.4124 30.0886 23.6593 30.3595C24.0794 30.8097 24.7355 31.3618 25.366 31.0358C27.9359 29.7354 30.4874 28.4166 33.0463 27.0942C33.2675 26.9831 33.205 26.5093 33.1608 26.3478C33.0687 25.9808 32.8181 25.5923 32.5712 25.3214C32.1511 24.8712 31.495 24.3191 30.8645 24.6451Z" fill="white"/>
<path d="M43.0763 18.1787C40.5395 19.5451 38.0065 20.9005 35.455 22.2376C35.2337 22.3488 35.2963 22.8225 35.3405 22.984C35.4326 23.351 35.6831 23.7395 35.9301 24.0104C36.3465 24.4532 37.01 25.02 37.6368 24.6867C40.1846 23.3423 42.7214 21.9942 45.2581 20.6278C45.4794 20.5166 45.4205 20.0502 45.3726 19.8814C45.2806 19.5143 45.03 19.1259 44.783 18.855C44.3702 18.4195 43.6994 17.838 43.0763 18.1787Z" fill="white"/>
<path d="M54.6798 11.8067C52.3348 13.1135 49.986 14.413 47.6263 15.7089C47.4013 15.8311 47.4639 16.2865 47.5118 16.4553C47.6038 16.8223 47.8544 17.2108 48.1014 17.4817C48.5068 17.9209 49.185 18.4986 49.8081 18.158C52.1642 16.8732 54.5129 15.5736 56.8617 14.2558C57.0866 14.1336 57.024 13.6782 56.9761 13.5094C56.8841 13.1423 56.6335 12.7539 56.3865 12.483C55.9848 12.0511 55.2993 11.4587 54.6798 11.8067Z" fill="white"/>
<path d="M64.6942 6.13201C62.8653 7.17949 61.0291 8.23068 59.1966 9.27083C58.9754 9.40036 59.0416 9.84469 59.0821 10.0172C59.1742 10.3843 59.4248 10.7727 59.6717 11.0436C60.0734 11.4755 60.7627 12.0753 61.3784 11.7199C63.211 10.6798 65.0509 9.63594 66.876 8.58112C67.0973 8.45159 67.031 8.00726 66.9905 7.83473C66.8984 7.46767 66.6479 7.07923 66.4009 6.80835C66.0029 6.38377 65.3026 5.78041 64.6942 6.13201Z" fill="white"/>
<path d="M113.634 90.3372C114.791 92.2909 115.963 94.2371 117.157 96.1723C117.463 96.6707 118.263 97.4721 118.934 97.3003C119.641 97.1099 119.144 96.1199 118.93 95.768C117.744 93.8292 116.572 91.883 115.407 89.933C115.109 89.4309 114.294 88.6369 113.631 88.805C112.912 88.9917 113.428 89.9817 113.634 90.3372Z" fill="white"/>
<path d="M105.42 75.7913C107.045 78.7314 108.667 81.6642 110.292 84.6044C110.642 85.2275 111.232 85.9967 112.006 86.0854C112.728 86.1632 112.71 85.3549 112.459 84.893C110.834 81.9528 109.213 79.02 107.588 76.0799C107.245 75.453 106.648 74.6875 105.874 74.5989C105.152 74.5211 105.17 75.3294 105.42 75.7913Z" fill="white"/>
<path d="M96.7094 60.0716C98.6218 63.5103 100.534 66.9489 102.432 70.395C102.775 71.0219 103.372 71.7874 104.146 71.876C104.868 71.9538 104.85 71.1455 104.6 70.6836C102.695 67.2412 100.789 63.7989 98.877 60.3602C98.527 59.737 97.9373 58.9678 97.1632 58.8792C96.4406 58.8014 96.4588 59.6097 96.7094 60.0716Z" fill="white"/>
<path d="M87.3939 43.5902C89.5091 47.2668 91.6021 50.9546 93.6804 54.6498C94.0231 55.2583 94.6238 56.0678 95.3943 56.1308C96.1058 56.1866 96.1134 55.4113 95.8481 54.9384C93.6408 51.0049 91.4151 47.0899 89.1636 43.1786C88.8799 42.6874 88.0285 41.8569 87.387 42.0506C86.6828 42.2667 87.1728 43.2053 87.3903 43.5828L87.3939 43.5902Z" fill="white"/>
<path d="M78.9996 29.3279C80.8679 32.4214 82.7067 35.5296 84.5344 38.6526C84.8255 39.1585 85.6474 39.9488 86.3111 39.7806C87.03 39.5939 86.5142 38.604 86.3078 38.2484C84.4837 35.1327 82.6412 32.0171 80.7729 28.9237C80.4745 28.4216 79.6599 27.6276 78.9963 27.7957C78.2847 27.9787 78.7932 28.9724 78.9996 29.3279Z" fill="white"/>
<path d="M69.9527 14.7965C71.9132 17.8344 73.8368 20.8909 75.7346 23.9695C76.0405 24.468 76.8403 25.2693 77.5113 25.0975C78.2192 24.9072 77.7217 23.9171 77.508 23.5653C75.6102 20.4867 73.6866 17.4302 71.7261 14.3923C71.4018 13.8939 70.6278 13.0887 69.9494 13.2643C69.2711 13.4398 69.7316 14.4483 69.9527 14.7965Z" fill="white"/>
<path d="M65.2542 7.6509C65.888 8.59994 66.5219 9.54898 67.1483 10.5017C67.3731 10.8388 67.7011 11.1792 68.055 11.3872C68.2577 11.5149 68.6632 11.7153 68.9287 11.6187C69.6071 11.388 69.176 10.4749 68.9254 10.0865C68.2989 9.13371 67.6651 8.18467 67.0312 7.23563C66.8064 6.89852 66.4784 6.55817 66.1245 6.3502C65.9218 6.22244 65.5163 6.02203 65.2509 6.11867C64.5725 6.34932 64.9962 7.26616 65.2542 7.6509Z" fill="white"/>
<path d="M121.847 93.8158C122.584 95.7418 123.166 97.7272 123.63 99.7352C123.921 100.994 124.377 102.767 123.172 103.768L123.986 103.735C120.599 102.709 117.377 101.279 114.351 99.4836C113.89 99.2099 113.06 99.0297 113.056 99.8123C113.053 100.595 113.782 101.386 114.391 101.769C117.218 103.554 120.281 105 123.455 106.06C123.812 106.183 124.174 106.296 124.535 106.408C125.055 106.56 125.405 106.614 125.792 106.19C126.253 105.692 126.489 105.077 126.585 104.423C126.807 102.933 126.409 101.425 126.048 99.9897C125.555 97.9966 124.91 96.0518 124.177 94.1331C123.915 93.4471 123.086 92.6238 122.323 92.5388C121.482 92.4467 121.644 93.3206 121.832 93.8232L121.847 93.8158Z" fill="white"/>
</g>
<defs>
<clipPath id="clip0_102_31">
<rect width="116.911" height="86.0595" fill="white" transform="translate(76.8986) rotate(63.323)"/>
</clipPath>
</defs>
</svg>
