<svg width="103" height="76" viewBox="0 0 103 76" fill="none" xmlns="http://www.w3.org/2000/svg">
<g clip-path="url(#clip0_6_1486)">
<path d="M1.17859 68.763C1.14243 70.964 1.10628 73.165 1.05567 75.366C1.04121 75.9781 1.79319 76.0364 2.26318 75.9709C2.62471 75.9198 3.00793 75.8178 3.31885 75.6065C3.50684 75.4826 3.84668 75.2639 3.84668 75.0088C3.8973 72.8078 3.94068 70.6068 3.9696 68.4058C3.97683 67.7936 3.23931 67.7353 2.76209 67.8009C2.40056 67.8519 2.01734 67.954 1.70642 68.1653C1.52566 68.2892 1.17859 68.5079 1.17859 68.763Z" fill="black"/>
<path d="M1.26536 58.0932C1.26536 60.1266 1.25089 62.16 1.2292 64.1933C1.2292 64.4411 1.27982 64.5796 1.5112 64.6962C1.76427 64.8274 2.15472 64.8347 2.42948 64.791C2.79101 64.7399 3.17424 64.6379 3.48515 64.4266C3.66592 64.3027 4.01299 64.084 4.01299 63.8289C4.03468 61.7956 4.04191 59.7622 4.04914 57.7288C4.04914 57.481 3.99852 57.3498 3.76715 57.2259C3.51407 57.0948 3.12362 57.0875 2.84886 57.1312C2.48733 57.1822 2.10411 57.2842 1.79319 57.4956C1.61242 57.6195 1.26536 57.8381 1.26536 58.0932Z" fill="black"/>
<path d="M1.19305 46.097C1.2292 48.6406 1.25089 51.1768 1.25812 53.7204C1.25812 53.939 1.65581 54.0775 1.80042 54.1066C2.1258 54.1795 2.53071 54.1358 2.84163 54.0483C3.36223 53.8953 4.05637 53.5965 4.04914 52.9697C4.04191 50.4262 4.01299 47.8899 3.98406 45.3464C3.98406 45.1277 3.58638 44.9893 3.44177 44.9601C3.11639 44.8872 2.71148 44.931 2.40056 45.0184C1.87996 45.1715 1.18582 45.4703 1.19305 46.097Z" fill="black"/>
<path d="M0.932747 33.8968C1.00505 36.4404 1.07013 38.9766 1.11351 41.5201C1.11351 41.7388 1.5112 41.8773 1.65581 41.9064C1.98118 41.9793 2.3861 41.9356 2.69702 41.8481C3.21039 41.6951 3.91899 41.3962 3.90453 40.7695C3.85391 38.2259 3.79607 35.6897 3.72376 33.1461C3.72376 32.9275 3.33331 32.789 3.18147 32.7599C2.85609 32.687 2.45117 32.7307 2.14026 32.8182C1.63412 32.9712 0.911055 33.27 0.932747 33.8968Z" fill="black"/>
<path d="M0.506143 22.214C0.607372 24.5827 0.70137 26.9513 0.788137 29.3272C0.795367 29.5531 1.17859 29.6843 1.33043 29.7135C1.65581 29.7864 2.06072 29.7426 2.37164 29.6552C2.87778 29.5094 3.60084 29.2033 3.57915 28.5765C3.49961 26.2079 3.40562 23.8393 3.29716 21.4634C3.28993 21.2374 2.9067 21.1063 2.75486 21.0771C2.42948 21.0042 2.02457 21.048 1.71365 21.1354C1.21474 21.2812 0.477221 21.5873 0.506143 22.214Z" fill="black"/>
<path d="M1.71014e-06 12.0618C0.10123 13.9202 0.202459 15.786 0.296457 17.6444C0.310918 17.8704 0.686909 17.9943 0.838752 18.0307C1.16413 18.1036 1.56904 18.0598 1.87996 17.9724C2.37887 17.8266 3.12362 17.5205 3.08747 16.8938C2.99347 15.0353 2.89948 13.1696 2.79102 11.3111C2.77655 11.0852 2.40056 10.9613 2.24872 10.9248C1.92334 10.8519 1.51843 10.8957 1.20751 10.9831C0.715832 11.1289 -0.0361513 11.4423 1.71014e-06 12.0618Z" fill="black"/>
<path d="M85.6465 6.82893C87.6422 6.69045 89.6378 6.5374 91.6335 6.36249C92.1469 6.31876 93.0941 6.00537 93.2242 5.40775C93.3544 4.77369 92.3782 4.77369 92.0167 4.80284C90.0211 4.97047 88.0254 5.12352 86.0298 5.26928C85.5164 5.30572 84.5692 5.63368 84.439 6.22402C84.3017 6.86537 85.285 6.85079 85.6465 6.82893Z" fill="black"/>
<path d="M70.9467 7.54315C73.904 7.42654 76.8541 7.30994 79.8114 7.19333C80.4405 7.16417 81.2793 7.00384 81.6553 6.42808C82.0023 5.88876 81.3588 5.58266 80.896 5.59724C77.9387 5.71385 74.9886 5.83046 72.0313 5.94707C71.4023 5.96893 70.5635 6.13656 70.1875 6.71231C69.8404 7.25163 70.484 7.55773 70.9467 7.54315Z" fill="black"/>
<path d="M55.1261 8.18452C58.5896 8.03875 62.0531 7.89299 65.5165 7.76181C66.1456 7.73994 66.9844 7.57232 67.3603 6.99656C67.7074 6.45724 67.0639 6.15114 66.6011 6.16572C63.1377 6.30419 59.6742 6.44267 56.2107 6.58843C55.5817 6.61758 54.7429 6.77792 54.3669 7.35368C54.0199 7.89299 54.6634 8.19909 55.1261 8.18452Z" fill="black"/>
<path d="M38.4668 9.00077C42.1978 8.78942 45.9288 8.59993 49.6598 8.42501C50.2744 8.39586 51.1493 8.24281 51.5036 7.65976C51.829 7.12045 51.2216 6.80706 50.7444 6.82892C46.7748 7.01113 42.8124 7.21519 38.8428 7.44112C38.3439 7.47027 37.3533 7.81281 37.2521 8.39586C37.1436 9.03721 38.0764 9.02263 38.4596 9.00077H38.4668Z" fill="black"/>
<path d="M23.9189 9.97009C27.0931 9.7223 30.2673 9.50365 33.4488 9.29959C33.9622 9.27043 34.9094 8.93518 35.0395 8.34485C35.1769 7.7035 34.1935 7.71808 33.832 7.73994C30.6578 7.94401 27.4763 8.16265 24.3021 8.41044C23.7887 8.44688 22.8415 8.77485 22.7113 9.36518C22.574 9.99924 23.5573 9.99195 23.9189 9.97009Z" fill="black"/>
<path d="M8.90088 11.3475C12.0679 11.005 15.2349 10.6989 18.4091 10.4219C18.9225 10.3782 19.8697 10.0648 19.9999 9.4672C20.13 8.83314 19.1539 8.83314 18.7923 8.86229C15.6181 9.13924 12.4511 9.44534 9.2841 9.78788C8.7635 9.84618 7.82352 10.1377 7.69337 10.7426C7.56322 11.3475 8.53935 11.384 8.90088 11.3475Z" fill="black"/>
<path d="M1.4172 12.2221C2.41502 12.0982 3.41285 11.9743 4.41067 11.8577C4.76497 11.814 5.16266 11.6901 5.46634 11.4933C5.64711 11.384 5.96525 11.1435 5.99418 10.8957C6.08094 10.2689 5.19158 10.247 4.78666 10.2908C3.78884 10.4074 2.79102 10.5313 1.79319 10.6552C1.43889 10.6989 1.04121 10.8228 0.737524 11.0196C0.556758 11.1289 0.238612 11.3694 0.209689 11.6172C0.122922 12.244 1.01229 12.2731 1.4172 12.2221Z" fill="black"/>
<path d="M91.6335 1.72727C93.4411 1.90947 95.2343 2.23744 96.9986 2.66743C98.1049 2.93709 99.6812 3.27963 99.9921 4.62792L100.289 3.972C98.141 6.23859 95.7405 8.21366 93.1302 9.88991C92.7325 10.145 92.2625 10.728 92.8772 11.0414C93.4918 11.3548 94.4028 11.0924 94.9451 10.7645C97.4686 9.24127 99.8185 7.39739 101.908 5.313C102.147 5.07979 102.378 4.83928 102.61 4.59877C102.935 4.24895 103.116 3.99386 102.935 3.52014C102.725 2.95896 102.335 2.52896 101.858 2.19371C100.773 1.42846 99.4281 1.14423 98.1555 0.859993C96.3912 0.459149 94.6053 0.196778 92.8049 0.0145765C92.1613 -0.0510161 91.1852 0.276947 90.8164 0.845416C90.4115 1.47219 91.1635 1.69083 91.6335 1.74185V1.72727Z" fill="black"/>
</g>
<defs>
<clipPath id="clip0_6_1486">
<rect width="103" height="76" fill="white"/>
</clipPath>
</defs>
</svg>
