<svg width="126" height="84" viewBox="0 0 126 84" fill="none" xmlns="http://www.w3.org/2000/svg">
<path d="M34.2694 18.0513L92.6235 50.4055L109.102 59.5424L110.555 58.6034L69.0672 36.222L27.5792 13.8406C19.7426 9.61404 11.906 5.38746 4.06932 1.16088L2.92921 2.26661C18.4731 10.5111 33.8686 19.0391 49.0983 27.8489C64.3281 36.6587 79.3787 45.742 94.2676 55.1004C102.649 60.3709 110.977 65.7273 119.245 71.1655L120.698 70.2265L79.0316 49.1451C65.1436 42.1215 51.2531 35.0872 37.3651 28.0637L13.9067 16.1946C13.479 15.9747 12.4229 15.6943 12.0548 16.1528C11.6488 16.6426 12.4097 17.1153 12.7666 17.3003C27.6824 24.9624 42.4074 32.9914 56.9265 41.3964C71.4456 49.8014 85.6203 58.478 99.6374 67.5423C107.55 72.659 115.386 77.8839 123.146 83.2171L124.61 82.2757C108.652 73.8932 92.7453 65.414 76.8974 56.8249C61.0496 48.2358 45.3501 39.6015 29.6588 30.8348C20.822 25.8953 12.0016 20.9294 3.2017 15.9304L1.74891 16.8694C16.8358 24.6285 31.7276 32.7611 46.4151 41.2525C61.1027 49.7438 75.4524 58.5108 89.6446 67.6655C97.6724 72.8353 105.63 78.1175 113.512 83.508C114.007 83.8429 114.931 84.1421 115.496 83.8428C116.061 83.5434 115.679 83.0126 115.284 82.7399C101.234 73.1329 86.9611 63.8548 72.465 54.9511C57.9689 46.0473 43.2618 37.4981 28.3612 29.3051C19.9336 24.6747 11.4429 20.1609 2.8998 15.7612C2.4721 15.5413 1.55257 15.3091 1.1306 15.6608C0.708636 16.0125 1.0342 16.4712 1.44033 16.696C17.166 25.6307 32.9574 34.4595 48.7996 43.1917C64.6352 51.9197 80.519 60.5403 96.4602 69.0683C105.446 73.8716 114.442 78.6442 123.463 83.3772C123.887 83.6037 124.817 83.8335 125.232 83.4776C125.647 83.1218 125.301 82.6961 124.92 82.4316C111.049 72.9085 96.9472 63.7275 82.6236 54.9034C68.3067 46.0835 53.7706 37.6313 39.0303 29.5378C30.7202 24.9713 22.3363 20.5238 13.9041 16.1838L12.764 17.2896L54.4304 38.371C68.3184 45.3945 82.209 52.4288 96.0969 59.4524L119.555 71.3214C119.983 71.5413 120.903 71.7735 121.318 71.4177C121.733 71.0619 121.391 70.6296 121.008 70.3825C106.205 60.647 91.2277 51.1784 76.08 41.9981C60.9858 32.8511 45.7191 23.9817 30.2974 15.3916C21.6033 10.55 12.8558 5.79425 4.06419 1.13936C3.6406 0.912889 2.58295 0.649848 2.21234 1.09757C1.80221 1.59403 2.57134 2.05347 2.92818 2.23848C16.7561 9.70114 30.5841 17.1638 44.4162 24.6199L85.9042 47.0012L109.41 59.6876C109.834 59.9141 110.761 60.1331 111.168 59.7904C111.575 59.4478 111.265 58.98 110.859 58.7552L52.5097 26.4225L36.0308 17.2857C35.4937 16.9887 34.6481 16.6375 34.0465 16.9509C33.4961 17.2412 33.8258 17.8124 34.2627 18.0472L34.2694 18.0513Z" fill="white"/>
</svg>
