<svg width="99" height="93" viewBox="0 0 99 93" fill="none" xmlns="http://www.w3.org/2000/svg">
<g clip-path="url(#clip0_6_2219)">
<path d="M2.6981 0.986283C2.54661 24.3119 2.51054 47.6447 2.68368 70.9703C2.73418 77.6296 2.7991 84.2817 2.88567 90.941C2.9001 91.8049 5.68477 91.2722 5.67034 90.1923C5.36735 66.9027 5.2952 43.6059 5.37456 20.3163C5.3962 13.7578 5.43227 7.19924 5.47556 0.633519C5.48277 -0.518362 2.6981 0.064778 2.69089 0.979084L2.6981 0.986283Z" fill="black"/>
<path d="M1.63041 3.00931C13.8224 3.00211 26.0143 3.21089 38.2062 3.44847C50.3982 3.68604 62.3448 3.94521 74.4141 4.0388C81.2315 4.0892 88.0489 4.082 94.8663 3.98841C95.4651 3.98121 96.3741 3.80123 96.7059 3.23249C97.0378 2.66375 96.439 2.40457 95.9484 2.41177C83.8503 2.57736 71.7449 2.46217 59.6467 2.26059C47.5486 2.05901 35.4576 1.77104 23.3667 1.59106C16.4844 1.49027 9.60206 1.42547 2.71975 1.43267C2.12097 1.43267 1.20477 1.62705 0.880136 2.1886C0.555498 2.75014 1.15427 3.00931 1.63762 3.00931H1.63041Z" fill="black"/>
<path d="M93.3225 1.9654C92.8247 25.4062 93.5822 48.847 93.3946 72.2878C93.3441 78.9831 93.2142 85.6784 92.9545 92.3665C92.9113 93.504 95.7031 92.9424 95.7392 92.0209C96.6265 68.5873 95.9701 45.1321 95.9268 21.6914C95.9123 15.0033 95.9556 8.30795 96.0999 1.61984C96.1216 0.475156 93.3297 1.0511 93.3152 1.9654H93.3225Z" fill="black"/>
<path d="M0.84408 89.134C13.3679 88.9541 25.8989 89.0548 38.4227 89.2564C50.9465 89.458 63.5424 89.7604 76.1023 89.9692C83.0928 90.0843 90.0761 90.1707 97.0666 90.1923C97.6654 90.1923 98.5816 89.9979 98.9062 89.4364C99.2309 88.8749 98.6321 88.6229 98.1488 88.6157C85.7188 88.5797 73.296 88.3349 60.8659 88.0901C48.4359 87.8454 35.6885 87.5718 23.0998 87.4926C16.0443 87.4494 8.98166 87.4566 1.92621 87.5646C1.32743 87.5718 0.418444 87.7518 0.0865925 88.3205C-0.245259 88.8893 0.353517 89.1484 0.84408 89.1412V89.134Z" fill="black"/>
</g>
<defs>
<clipPath id="clip0_6_2219">
<rect width="99" height="93" fill="white"/>
</clipPath>
</defs>
</svg>
