<svg width="114" height="111" viewBox="0 0 114 111" fill="none" xmlns="http://www.w3.org/2000/svg">
<g clip-path="url(#clip0_102_62)">
<path d="M33.6975 1.73902C25.5959 20.9952 17.5874 40.2969 9.75454 59.6641C7.51919 65.1937 5.29824 70.7223 3.09275 76.2642C2.80928 76.9843 5.29649 77.4955 5.65382 76.5967C13.3669 57.2148 21.2735 37.906 29.3031 18.6549C31.5637 13.2334 33.8362 7.81681 36.1172 2.39676C36.5171 1.44575 34.0126 0.97623 33.694 1.73059L33.6975 1.73902Z" fill="white"/>
<path d="M32.1219 3.04848C42.2164 7.21156 52.2371 11.5534 62.2478 15.9191C72.2586 20.2848 82.059 24.5845 92.0175 28.7891C97.6434 31.162 103.289 33.4872 108.964 35.741C109.462 35.9398 110.276 36.1016 110.745 35.7443C111.215 35.387 110.808 34.9677 110.399 34.8059C100.328 30.806 90.3471 26.5712 80.4017 22.2674C70.4562 17.9636 60.5463 13.5907 50.5994 9.30723C44.9369 6.87039 39.2622 4.46335 33.5628 2.1159C33.0671 1.91115 32.2423 1.75875 31.7815 2.11257C31.3208 2.46638 31.7278 2.88567 32.1279 3.05095L32.1219 3.04848Z" fill="white"/>
<path d="M108.378 33.5385C99.9505 52.7717 92.5619 72.4341 84.3911 91.7733C82.0598 97.2981 79.6628 102.796 77.1609 108.243C76.7361 109.17 79.2391 109.66 79.5841 108.909C88.3317 89.8154 95.8088 70.1756 103.789 50.7574C106.064 45.2163 108.389 39.689 110.795 34.2022C111.205 33.2621 108.697 32.7841 108.372 33.536L108.378 33.5385Z" fill="white"/>
<path d="M2.02069 74.0703C12.4489 78.2039 22.7872 82.5723 33.085 87.0217C43.3827 91.471 53.7058 96.0285 64.031 100.496C69.7781 102.982 75.529 105.441 81.3081 107.85C81.8038 108.054 82.6287 108.207 83.0894 107.853C83.5501 107.499 83.1407 107.086 82.743 106.915C72.4662 102.634 62.2668 98.1838 52.0614 93.7307C41.8561 89.2777 31.3978 84.6922 21.0044 80.322C15.1789 77.8736 9.33026 75.4645 3.4531 73.1413C2.95499 72.9425 2.14102 72.7806 1.67185 73.1379C1.20267 73.4952 1.60969 73.9145 2.01822 74.0763L2.02069 74.0703Z" fill="white"/>
</g>
<defs>
<clipPath id="clip0_102_62">
<rect width="88.6655" height="83.2918" fill="white" transform="translate(31.8014) rotate(22.4456)"/>
</clipPath>
</defs>
</svg>
