<svg width="160" height="44" viewBox="0 0 160 44" fill="none" xmlns="http://www.w3.org/2000/svg">
<g clip-path="url(#clip0_6_1344)">
<path d="M3.75995 22.55C9.92995 14.28 17.07 4.51002 27.91 2.49002C39.46 0.340019 47.82 10.36 54.47 18.25C61.12 26.14 68.21 35.24 78.07 40.11C82.71 42.4 87.82 43.6 93 43.29C98.86 42.94 104.43 40.75 109.69 38.26C121.69 32.59 133.11 25.74 143.81 17.9C144.41 17.46 144.26 16.81 143.62 16.57C142.86 16.29 141.67 16.53 141.03 16.99C131.4 23.94 121.22 30.13 110.56 35.37C105.42 37.89 100.03 40.52 94.24 40.98C89.07 41.39 83.97 39.71 79.5 37.21C69.66 31.69 63.1 22.27 55.78 13.99C52.2 9.93002 48.36 5.86002 43.68 3.06002C39 0.26002 33.67 -0.57998 28.38 0.370019C15.65 2.65002 7.46995 12.67 0.159955 22.47C-0.400045 23.21 0.639955 23.58 1.20995 23.61C2.08995 23.66 3.21995 23.28 3.75995 22.56V22.55Z" fill="black"/>
<path d="M126.16 20.71C131.21 18.55 136.29 16.46 141.4 14.45C143.88 13.47 146.37 12.52 148.86 11.58C150.15 11.1 151.43 10.62 152.72 10.15C153.65 9.80997 154.43 9.42997 155.34 9.96997L155.06 8.92997C153.02 11.94 150.22 14.23 147.43 16.51C144.64 18.79 141.73 21.16 138.97 23.59C133.51 28.39 128.31 33.62 124.48 39.85C123.99 40.64 124.9 41 125.56 41.03C126.42 41.07 127.69 40.71 128.2 39.94C132.27 33.79 137.42 28.55 142.97 23.72C145.69 21.36 148.48 19.09 151.26 16.81C154.04 14.53 156.87 12.09 158.91 9.02997C159.2 8.59997 159.05 8.22997 158.63 7.98997C156.21 6.58997 153.26 7.67997 150.87 8.55997C147.92 9.64997 144.97 10.77 142.04 11.91C136.17 14.19 130.34 16.58 124.55 19.06C123.99 19.3 122.91 19.97 123.47 20.69C124.03 21.41 125.55 20.99 126.16 20.73V20.71Z" fill="black"/>
</g>
<defs>
<clipPath id="clip0_6_1344">
<rect width="159.07" height="43.34" fill="white"/>
</clipPath>
</defs>
</svg>
