<svg width="107" height="59" viewBox="0 0 107 59" fill="none" xmlns="http://www.w3.org/2000/svg">
<g clip-path="url(#clip0_6_4775)">
<path d="M85.45 52.09C88.4 51.3 91.34 50.5 94.33 49.85C94.9 49.73 96.21 49.15 96 48.37C95.79 47.59 94.34 47.8 93.81 47.92C90.83 48.57 87.88 49.36 84.93 50.16C84.37 50.31 83.04 50.84 83.26 51.64C83.48 52.44 84.92 52.23 85.45 52.09Z" fill="black"/>
<path d="M69.59 55.45C72.58 55.13 75.55 54.56 78.48 53.88C79.05 53.75 80.36 53.18 80.15 52.4C79.94 51.62 78.49 51.83 77.96 51.95C77.27 52.11 76.58 52.26 75.89 52.41C75.73 52.44 75.57 52.48 75.41 52.51C74.87 52.62 75.83 52.43 75.29 52.53C74.94 52.6 74.59 52.66 74.25 52.72C72.88 52.96 71.51 53.16 70.12 53.31C69.4 53.39 68.1 53.79 67.92 54.62C67.74 55.45 69.09 55.5 69.59 55.45Z" fill="black"/>
<path d="M46.99 49.53C50.39 52.36 54.42 54.3 58.77 55.15C59.67 55.33 60.82 55.04 61.5 54.42C62.09 53.88 61.95 53.21 61.13 53.05C57.24 52.29 53.62 50.55 50.57 48.02C49.9 47.46 48.75 47.65 48.01 47.98C47.63 48.15 46.29 48.96 46.98 49.53H46.99Z" fill="black"/>
<path d="M40.12 31.31C40.18 34.84 40.67 38.36 41.85 41.7C42.13 42.48 43.44 42.33 44.04 42.15C44.53 42.01 45.99 41.45 45.71 40.67C44.53 37.33 44.05 33.81 43.98 30.28C43.98 29.98 43.43 29.79 43.23 29.75C42.78 29.65 42.22 29.71 41.79 29.83C41.08 30.04 40.1 30.45 40.12 31.31Z" fill="black"/>
<path d="M36.38 11.83C38.34 15 39.15 18.74 39.55 22.39C39.58 22.7 40.07 22.87 40.3 22.92C40.75 23.02 41.31 22.96 41.74 22.84C42.39 22.65 43.51 22.21 43.41 21.36C42.98 17.47 42.04 13.68 39.96 10.32C39.79 10.05 39.17 9.99 38.92 9.98C38.43 9.96 37.85 10.08 37.41 10.28C36.81 10.55 35.92 11.09 36.38 11.83Z" fill="black"/>
<path d="M20.79 2.21C24.54 2.65 28.18 3.97 31.23 6.24C31.94 6.77 33.02 6.63 33.79 6.28C34.13 6.12 35.54 5.27 34.82 4.73C31.4 2.19 27.38 0.610003 23.16 0.110003C22.22 3.241e-06 21.15 0.190003 20.43 0.840003C19.88 1.34 19.94 2.11 20.8 2.21H20.79Z" fill="black"/>
<path d="M2.21001 4.27999C6.25001 3.36999 10.08 2.51999 14.23 2.14999C14.94 2.08999 16.25 1.65999 16.43 0.839994C16.62 -0.0300059 15.26 -0.0300058 14.76 0.00999417C10.35 0.409994 6.01001 1.37999 1.70001 2.34999C1.13001 2.47999 -0.189993 3.04999 0.0200068 3.83999C0.230007 4.62999 1.68001 4.40999 2.21001 4.28999V4.27999Z" fill="black"/>
<path d="M84.6 43.6C90.78 44.75 96.98 45.8 103.16 46.93L102.78 45.51C98.89 49.6 94.59 53.27 89.89 56.42C89.35 56.78 88.74 57.5 89.55 57.95C90.36 58.4 91.64 58.02 92.33 57.58C97.35 54.36 101.96 50.54 106.01 46.17C106.54 45.6 106.56 44.9 105.63 44.75C99.42 43.68 93.22 42.53 87 41.48C86.07 41.32 84.94 41.58 84.23 42.22C83.64 42.76 83.77 43.45 84.6 43.6Z" fill="black"/>
</g>
<defs>
<clipPath id="clip0_6_4775">
<rect width="106.37" height="58.14" fill="white"/>
</clipPath>
</defs>
</svg>
