<svg width="36" height="35" viewBox="0 0 36 35" fill="none" xmlns="http://www.w3.org/2000/svg">
<g clip-path="url(#clip0_6_3942)">
<path d="M2.40996 5.16999L29.88 33.01C30.83 33.97 34.49 32.53 33.47 31.5L5.98996 3.65999C5.03996 2.69999 1.37996 4.13999 2.39996 5.16999H2.40996Z" fill="black"/>
<path d="M5.27008 33.3C14.8601 24.18 24.3601 14.98 33.7901 5.69001C34.3701 5.12001 34.2101 4.53001 33.4201 4.32001C32.6301 4.11001 31.3001 4.45001 30.6901 5.05001C21.2701 14.34 11.7601 23.55 2.17008 32.67C1.58008 33.24 1.76008 33.83 2.54008 34.04C3.38008 34.26 4.64008 33.91 5.27008 33.31V33.3Z" fill="black"/>
<path d="M1.17012 20.07C11.8101 20.14 22.4501 20.17 33.0901 20.19C33.9201 20.19 35.1901 19.92 35.6401 19.14C36.0901 18.36 35.2601 18 34.5901 18C23.9501 17.99 13.3101 17.95 2.67012 17.88C1.85012 17.88 0.570122 18.15 0.120122 18.93C-0.329878 19.71 0.500122 20.06 1.17012 20.07Z" fill="black"/>
<path d="M20.16 33.48C20.39 22.62 20.52 11.75 20.56 0.889989C20.56 -0.710011 16.7 0.109989 16.7 1.36999C16.67 12.24 16.53 23.1 16.3 33.96C16.27 35.55 20.14 34.75 20.16 33.48Z" fill="black"/>
</g>
<defs>
<clipPath id="clip0_6_3942">
<rect width="35.77" height="34.85" fill="white"/>
</clipPath>
</defs>
</svg>
