<svg width="126" height="123" viewBox="0 0 126 123" fill="none" xmlns="http://www.w3.org/2000/svg">
<g clip-path="url(#clip0_102_26)">
<path d="M7.33279 81.3967C33.4674 63.6844 58.7166 44.7368 84.7894 26.9407C87.1198 25.3421 81.5019 23.1745 79.8693 24.2928C53.8035 42.075 28.5473 61.0364 2.41973 78.7349C0.0825941 80.3127 5.69338 82.4941 7.33984 81.3829L7.33279 81.3967Z" fill="white"/>
<path d="M78.3831 22.6642C82.0047 50.1315 84.9248 77.6765 87.1158 105.285C87.2669 107.243 93.3315 108.193 93.1427 105.728C90.9518 78.1194 88.0387 50.5606 84.4101 23.1071C84.148 21.1273 78.062 20.2537 78.3831 22.6642Z" fill="white"/>
<path d="M3.4362 78.3127C32.6401 86.828 61.7013 95.8281 90.6271 105.299C91.6237 105.633 93.8475 106.122 94.5916 105.039C95.3357 103.955 93.6985 102.998 92.868 102.714C63.9632 93.2366 34.8949 84.2504 5.67716 75.728C4.65935 75.4355 2.48468 74.884 1.71265 75.9883C0.940627 77.0925 2.59159 78.0562 3.4362 78.3127Z" fill="white"/>
</g>
<defs>
<clipPath id="clip0_102_26">
<rect width="95.9399" height="89.066" fill="white" transform="translate(40.4565) rotate(27.0155)"/>
</clipPath>
</defs>
</svg>
