<svg width="75" height="95" viewBox="0 0 75 95" fill="none" xmlns="http://www.w3.org/2000/svg">
<g clip-path="url(#clip0_6_2159)">
<path d="M7.71998 92.7C6.74998 69.02 7.72998 45.34 8.74998 21.68C9.03998 14.98 9.31998 8.28999 9.56998 1.58999C9.62998 0.00999278 5.74998 0.789993 5.70998 2.06999C4.83998 25.85 3.42998 49.63 3.44998 73.43C3.44998 80.2 3.57998 86.97 3.85998 93.73C3.90998 94.95 7.77998 94.18 7.71998 92.69V92.7Z" fill="black"/>
<path d="M4.41002 1.91998C20.24 26.39 36.47 50.6 53.25 74.43C57.89 81.02 62.58 87.58 67.31 94.1C68.07 95.15 71.81 93.85 70.9 92.59C53.86 69.07 37.41 45.13 21.4 20.91C16.9 14.09 12.44 7.25998 8.00002 0.409981C7.31002 -0.66002 3.55002 0.58998 4.41002 1.91998Z" fill="black"/>
<path d="M1.15 93.46C19.44 93.04 37.74 92.87 56.04 92.94C61.19 92.96 66.35 93.06 71.5 93.08C72.36 93.08 73.68 92.8 74.16 91.98C74.64 91.16 73.76 90.81 73.07 90.8C54.76 90.45 36.42 90.7 18.11 91C12.95 91.08 7.79 91.19 2.63 91.31C1.81 91.33 0.569997 91.56 0.119997 92.35C-0.310003 93.09 0.489997 93.48 1.15 93.47V93.46Z" fill="black"/>
</g>
<defs>
<clipPath id="clip0_6_2159">
<rect width="74.29" height="94.48" fill="white"/>
</clipPath>
</defs>
</svg>
